<svg xmlns="http://www.w3.org/2000/svg" xmlns:xlink="http://www.w3.org/1999/xlink" width="45px" height="45px" viewBox="0 0 45 45" version="1.1">
    <title>Group</title>
    <g id="Banner-mocks---FINAL" stroke="none" stroke-width="1" fill="none" fill-rule="evenodd">
        <g id="Goo_Shopping_FrenchPress_300x600_F2" transform="translate(-22.000000, -25.000000)">
            <g id="Group" transform="translate(22.000000, 25.000000)">
                <circle id="Oval" fill="#FFFFFF" cx="22.5" cy="22.5" r="22.5"/>
                <g id="tag" transform="translate(6.214636, 9.000000)" fill-rule="nonzero">
                    <path d="M24.5089245,8.16963598 C25.7120688,8.16963598 26.6875446,7.19421987 26.6875446,5.99107551 C26.6875446,4.78793116 25.7120688,3.81251504 24.5089245,3.81251504 C23.3057801,3.81251504 22.330364,4.78793116 22.330364,5.99107551 C22.330364,7.19421987 23.3057801,8.16963598 24.5089245,8.16963598 Z M9.07538787,7.50463373 L15.7586753,0.821346276 C16.2685004,0.311521158 16.9764849,1.70006867e-05 17.7553513,1.70006867e-05 L27.6678491,1.70006867e-05 C28.4197803,-0.0025909512 29.1416727,0.294946919 29.6733772,0.826640231 C30.2050817,1.35833354 30.5026347,2.08021963 30.5000424,2.83215091 L30.5000424,12.7446487 C30.5000424,13.5235151 30.1884788,14.2315592 29.664525,14.7413247 L22.9914317,21.4207968 L9.07538787,7.50463373 Z" id="Shape" fill="#4285F4"/>
                    <path d="M22.9914317,21.4207968 L14.7554788,29.6644996 C14.2314653,30.1742651 13.5234809,30.5 12.7446741,30.5 C11.9658674,30.5 11.2577637,30.1742651 10.7479982,29.6644996 L0.83544074,19.7520614 C0.311486932,19.2422363 0,18.5342519 0,17.7553855 C0,16.9623904 0.325675236,16.2543464 0.83544074,15.7445809 L9.07538787,7.50463373 L22.9914317,21.4207968 Z" id="Path" fill="#34A853"/>
                    <path d="M5.64575281,24.5623139 L0.83544074,19.7520018 C0.311486932,19.2423556 0,18.5342519 0,17.7554451 C0,16.9624501 0.325675236,16.254406 0.83544074,15.7446405 L9.07538787,7.50469335 L15.8893508,14.3187755 L5.64575281,24.5623139 Z" id="Path" fill="#FBBC05"/>
                    <path d="M29.5220458,0.686020853 C29.0068998,0.241287256 28.3484061,-0.00233194216 27.6678491,1.71503643e-05 L17.7553513,1.71503643e-05 C16.9764849,1.71503643e-05 16.2685004,0.311521158 15.7586753,0.821346276 L9.07538787,7.50463373 L15.8893508,14.3187159 L22.8293989,7.37866782 C22.5061748,6.98857686 22.3296479,6.49767612 22.3304236,5.99107551 C22.3304236,4.78793116 23.3057801,3.81251504 24.5089245,3.81251504 C25.0155456,3.8117254 25.5064697,3.98825308 25.8965764,4.31149028 L29.5220458,0.686020853 Z" id="Path" fill="#EA4335"/>
                    <circle id="Oval" fill="#4285F4" cx="15.8854162" cy="15.0911439" r="4.42520095"/>
                    <path d="M21.9144917,13.7893968 L16.0289685,13.7893968 L16.0289685,16.3145572 L19.416754,16.3145572 C19.1009152,17.9187895 17.7803298,18.8397177 16.0289685,18.8397177 C13.9618279,18.8397177 12.2966695,17.1166733 12.2966695,14.9776971 C12.2966695,12.8387208 13.9618279,11.1156764 16.0289685,11.1156764 C16.9190163,11.1156764 17.7228612,11.4424843 18.3544792,11.9772284 L20.1919243,10.0758764 C19.0722405,9.06582412 17.636718,8.44195604 16.0289685,8.44195604 C12.526365,8.44195604 9.71278849,11.3533603 9.71278849,14.9776971 C9.71278849,18.6020338 12.526365,21.5134381 16.0289685,21.5134381 C19.1870585,21.5134381 22.058044,19.1367779 22.058044,14.9776971 C22.058044,14.5915129 22.000635,14.1755809 21.9144917,13.7893968 L21.9144917,13.7893968 Z" id="Path" fill="#FFFFFF"/>
                </g>
            </g>
        </g>
    </g>
</svg>