<?xml version="1.0" encoding="UTF-8" standalone="no"?>
<svg
   xmlns:dc="http://purl.org/dc/elements/1.1/"
   xmlns:cc="http://creativecommons.org/ns#"
   xmlns:rdf="http://www.w3.org/1999/02/22-rdf-syntax-ns#"
   xmlns:svg="http://www.w3.org/2000/svg"
   xmlns="http://www.w3.org/2000/svg"
   xmlns:xlink="http://www.w3.org/1999/xlink"
   xmlns:sodipodi="http://sodipodi.sourceforge.net/DTD/sodipodi-0.dtd"
   xmlns:inkscape="http://www.inkscape.org/namespaces/inkscape"
   sodipodi:docname="Bob_SVG.svg"
   inkscape:version="1.0 (4035a4fb49, 2020-05-01)"
   id="svg2234"
   version="1.1"
   viewBox="0 0 78.164307 15.551319"
   height="15.551319mm"
   width="78.164307mm">
  <defs
     id="defs2228">
    <linearGradient
       inkscape:collect="always"
       xlink:href="#SVGID_522_-9"
       id="linearGradient2027"
       gradientUnits="userSpaceOnUse"
       gradientTransform="matrix(0.9938,-0.1116,0.1116,0.9938,-833.1748,1102.6343)"
       x1="5953.2329"
       y1="6931.4521"
       x2="5942.9834"
       y2="7096.2285" />
    <linearGradient
       gradientTransform="matrix(0.9938,-0.1116,0.1116,0.9938,-833.1748,1102.6343)"
       y2="7096.2285"
       x2="5942.9834"
       y1="6931.4521"
       x1="5953.2329"
       gradientUnits="userSpaceOnUse"
       id="SVGID_522_-9">
      <stop
         id="stop7840-8"
         style="stop-color:#F5E2BF"
         offset="0" />
      <stop
         id="stop7842-2"
         style="stop-color:#F09D68"
         offset="1" />
    </linearGradient>
    <radialGradient
       gradientUnits="userSpaceOnUse"
       gradientTransform="matrix(0.9976,-0.0686,0.0686,0.9976,-527.4785,586.272)"
       r="121.8525"
       cy="7155.2402"
       cx="5877.0913"
       id="SVGID_523_-7-1-1">
      <stop
         id="stop7847-7-3-6"
         style="stop-color:#E9D1A7"
         offset="0" />
      <stop
         id="stop7849-3-2-2"
         style="stop-color:#E9CEA4"
         offset="0.2929" />
      <stop
         id="stop7851-2-4-1"
         style="stop-color:#EAC69A"
         offset="0.5248" />
      <stop
         id="stop7853-8-3-1"
         style="stop-color:#ECB889"
         offset="0.7356" />
      <stop
         id="stop7855-8-1-1"
         style="stop-color:#EFA572"
         offset="0.9329" />
      <stop
         id="stop7857-1-9-9"
         style="stop-color:#F09D68"
         offset="1" />
    </radialGradient>
    <linearGradient
       inkscape:collect="always"
       xlink:href="#SVGID_524_-4"
       id="linearGradient2029"
       gradientUnits="userSpaceOnUse"
       gradientTransform="matrix(0.9976,-0.0686,0.0686,0.9976,-527.4785,586.272)"
       x1="5940.813"
       y1="7185.0347"
       x2="5970.1777"
       y2="7197.0815" />
    <linearGradient
       gradientTransform="matrix(0.9976,-0.0686,0.0686,0.9976,-527.4785,586.272)"
       y2="7197.0815"
       x2="5970.1777"
       y1="7185.0347"
       x1="5940.813"
       gradientUnits="userSpaceOnUse"
       id="SVGID_524_-4">
      <stop
         id="stop7882-2"
         style="stop-color:#F0C49A"
         offset="0" />
      <stop
         id="stop7884-2"
         style="stop-color:#CA9C6A"
         offset="1" />
    </linearGradient>
    <linearGradient
       inkscape:collect="always"
       xlink:href="#SVGID_525_-9"
       id="linearGradient2031"
       gradientUnits="userSpaceOnUse"
       gradientTransform="matrix(0.9938,-0.1116,0.1116,0.9938,-833.1748,1102.6343)"
       x1="5892.3184"
       y1="6916.8687"
       x2="5921.2217"
       y2="6916.8687" />
    <linearGradient
       gradientTransform="matrix(0.9938,-0.1116,0.1116,0.9938,-833.1748,1102.6343)"
       y2="6916.8687"
       x2="5921.2217"
       y1="6916.8687"
       x1="5892.3184"
       gradientUnits="userSpaceOnUse"
       id="SVGID_525_-9">
      <stop
         id="stop7893-3"
         style="stop-color:#6E6C6C"
         offset="0" />
      <stop
         id="stop7895-6"
         style="stop-color:#231F20"
         offset="1" />
    </linearGradient>
    <linearGradient
       inkscape:collect="always"
       xlink:href="#SVGID_526_-2"
       id="linearGradient2033"
       gradientUnits="userSpaceOnUse"
       gradientTransform="matrix(0.9938,-0.1116,0.1116,0.9938,-833.1748,1102.6343)"
       x1="5917.7178"
       y1="6922.543"
       x2="5929.6924"
       y2="6922.543" />
    <linearGradient
       gradientTransform="matrix(0.9938,-0.1116,0.1116,0.9938,-833.1748,1102.6343)"
       y2="6922.543"
       x2="5929.6924"
       y1="6922.543"
       x1="5917.7178"
       gradientUnits="userSpaceOnUse"
       id="SVGID_526_-2">
      <stop
         id="stop7906-8"
         style="stop-color:#4D4D4F"
         offset="0" />
      <stop
         id="stop7908-6"
         style="stop-color:#171600"
         offset="0.522" />
    </linearGradient>
    <linearGradient
       inkscape:collect="always"
       xlink:href="#SVGID_527_-5"
       id="linearGradient2035"
       gradientUnits="userSpaceOnUse"
       gradientTransform="matrix(0.9938,-0.1116,0.1116,0.9938,-833.1748,1102.6343)"
       x1="5948.1865"
       y1="6933.8193"
       x2="5977.7568"
       y2="6933.8193" />
    <linearGradient
       gradientTransform="matrix(0.9938,-0.1116,0.1116,0.9938,-833.1748,1102.6343)"
       y2="6933.8193"
       x2="5977.7568"
       y1="6933.8193"
       x1="5948.1865"
       gradientUnits="userSpaceOnUse"
       id="SVGID_527_-5">
      <stop
         id="stop7925-0"
         style="stop-color:#6E6C6C"
         offset="0" />
      <stop
         id="stop7927-0"
         style="stop-color:#231F20"
         offset="1" />
    </linearGradient>
    <linearGradient
       inkscape:collect="always"
       xlink:href="#SVGID_528_-1"
       id="linearGradient2037"
       gradientUnits="userSpaceOnUse"
       gradientTransform="matrix(0.9938,-0.1116,0.1116,0.9938,-833.1748,1102.6343)"
       x1="5962.6558"
       y1="6935.5527"
       x2="5974.6289"
       y2="6935.5527" />
    <linearGradient
       gradientTransform="matrix(0.9938,-0.1116,0.1116,0.9938,-833.1748,1102.6343)"
       y2="6935.5527"
       x2="5974.6289"
       y1="6935.5527"
       x1="5962.6558"
       gradientUnits="userSpaceOnUse"
       id="SVGID_528_-1">
      <stop
         id="stop7938-7"
         style="stop-color:#4D4D4F"
         offset="0" />
      <stop
         id="stop7940-5"
         style="stop-color:#171600"
         offset="0.6044" />
    </linearGradient>
    <linearGradient
       inkscape:collect="always"
       xlink:href="#SVGID_529_-8"
       id="linearGradient2039"
       gradientUnits="userSpaceOnUse"
       gradientTransform="matrix(0.9938,-0.1116,0.1116,0.9938,-833.1748,1102.6343)"
       x1="5996.4653"
       y1="6942.9453"
       x2="6010.6577"
       y2="6942.9453" />
    <linearGradient
       gradientTransform="matrix(0.9938,-0.1116,0.1116,0.9938,-833.1748,1102.6343)"
       y2="6942.9453"
       x2="6010.6577"
       y1="6942.9453"
       x1="5996.4653"
       gradientUnits="userSpaceOnUse"
       id="SVGID_529_-8">
      <stop
         id="stop7961-6"
         style="stop-color:#3A3A3A"
         offset="0" />
      <stop
         id="stop7963-5"
         style="stop-color:#231F20"
         offset="1" />
    </linearGradient>
    <linearGradient
       inkscape:collect="always"
       xlink:href="#SVGID_530_-5"
       id="linearGradient2041"
       gradientUnits="userSpaceOnUse"
       gradientTransform="matrix(0.9938,-0.1116,0.1116,0.9938,-833.1748,1102.6343)"
       x1="5857.856"
       y1="6881.6553"
       x2="6054.208"
       y2="6881.6553" />
    <linearGradient
       gradientTransform="matrix(0.9938,-0.1116,0.1116,0.9938,-833.1748,1102.6343)"
       y2="6881.6553"
       x2="6054.208"
       y1="6881.6553"
       x1="5857.856"
       gradientUnits="userSpaceOnUse"
       id="SVGID_530_-5">
      <stop
         id="stop7974-1"
         style="stop-color:#0085A8"
         offset="0" />
      <stop
         id="stop7976-4"
         style="stop-color:#006280"
         offset="1" />
    </linearGradient>
    <linearGradient
       inkscape:collect="always"
       xlink:href="#SVGID_531_-9"
       id="linearGradient2043"
       gradientUnits="userSpaceOnUse"
       gradientTransform="matrix(0.9938,-0.1116,0.1116,0.9938,-833.1748,1102.6343)"
       x1="5910.5649"
       y1="6866.5938"
       x2="5937.1763"
       y2="6866.5938" />
    <linearGradient
       gradientTransform="matrix(0.9938,-0.1116,0.1116,0.9938,-833.1748,1102.6343)"
       y2="6866.5938"
       x2="5937.1763"
       y1="6866.5938"
       x1="5910.5649"
       gradientUnits="userSpaceOnUse"
       id="SVGID_531_-9">
      <stop
         id="stop7997-7"
         style="stop-color:#0085A8"
         offset="0" />
      <stop
         id="stop7999-5"
         style="stop-color:#006280"
         offset="1" />
    </linearGradient>
    <linearGradient
       inkscape:collect="always"
       xlink:href="#SVGID_532_-9"
       id="linearGradient2045"
       gradientUnits="userSpaceOnUse"
       gradientTransform="matrix(0.9938,-0.1116,0.1116,0.9938,-833.1748,1102.6343)"
       x1="5958.2646"
       y1="6864.8013"
       x2="5978.3682"
       y2="6864.8013" />
    <linearGradient
       gradientTransform="matrix(0.9938,-0.1116,0.1116,0.9938,-833.1748,1102.6343)"
       y2="6864.8013"
       x2="5978.3682"
       y1="6864.8013"
       x1="5958.2646"
       gradientUnits="userSpaceOnUse"
       id="SVGID_532_-9">
      <stop
         id="stop8006-7"
         style="stop-color:#0085A8"
         offset="0" />
      <stop
         id="stop8008-9"
         style="stop-color:#006280"
         offset="1" />
    </linearGradient>
    <linearGradient
       inkscape:collect="always"
       xlink:href="#SVGID_533_-7"
       id="linearGradient2047"
       gradientUnits="userSpaceOnUse"
       gradientTransform="matrix(0.9938,-0.1116,0.1116,0.9938,-833.1748,1102.6343)"
       x1="5967.877"
       y1="6879.3281"
       x2="5977.7612"
       y2="6879.3281" />
    <linearGradient
       gradientTransform="matrix(0.9938,-0.1116,0.1116,0.9938,-833.1748,1102.6343)"
       y2="6879.3281"
       x2="5977.7612"
       y1="6879.3281"
       x1="5967.877"
       gradientUnits="userSpaceOnUse"
       id="SVGID_533_-7">
      <stop
         id="stop8025-8"
         style="stop-color:#0085A8"
         offset="0" />
      <stop
         id="stop8027-6"
         style="stop-color:#006280"
         offset="1" />
    </linearGradient>
  </defs>
  <sodipodi:namedview
     inkscape:window-maximized="1"
     inkscape:window-y="-8"
     inkscape:window-x="-8"
     inkscape:window-height="1009"
     inkscape:window-width="1920"
     fit-margin-bottom="0"
     fit-margin-right="0"
     fit-margin-left="0"
     fit-margin-top="0"
     showgrid="false"
     inkscape:document-rotation="0"
     inkscape:current-layer="layer1"
     inkscape:document-units="mm"
     inkscape:cy="98.540709"
     inkscape:cx="157.05698"
     inkscape:zoom="2.72529"
     inkscape:pageshadow="2"
     inkscape:pageopacity="0.0"
     borderopacity="1.0"
     bordercolor="#666666"
     pagecolor="#ffffff"
     id="base" />
  <metadata
     id="metadata2231">
    <rdf:RDF>
      <cc:Work
         rdf:about="">
        <dc:format>image/svg+xml</dc:format>
        <dc:type
           rdf:resource="http://purl.org/dc/dcmitype/StillImage" />
        <dc:title></dc:title>
      </cc:Work>
    </rdf:RDF>
  </metadata>
  <g
     transform="translate(-77.424003,-91.053696)"
     id="layer1"
     inkscape:groupmode="layer"
     inkscape:label="Layer 1">
    <g
       id="g1847"
       transform="matrix(0.48872635,0,0,0.48872635,249.80036,5.685394)">
      <g
         transform="matrix(0.1656774,0.01264192,-0.01264192,0.1656774,-1087.1904,-1094.2079)"
         id="HEAD_14_">
        <linearGradient
           id="linearGradient54499"
           gradientUnits="userSpaceOnUse"
           x1="5953.2329"
           y1="6931.4521"
           x2="5942.9834"
           y2="7096.2285"
           gradientTransform="matrix(0.9938,-0.1116,0.1116,0.9938,-833.1748,1102.6343)">
          <stop
             offset="0"
             style="stop-color:#F5E2BF"
             id="stop54495" />
          <stop
             offset="1"
             style="stop-color:#F09D68"
             id="stop54497" />
        </linearGradient>
        <path
           style="fill:url(#linearGradient2027)"
           inkscape:connector-curvature="0"
           d="m 5917.054,7335.873 c -0.012,-0.785 -0.019,-1.576 -0.035,-2.383 -0.869,-43.808 -21.259,-73.192 -55.02,-73.259 -3.871,-0.01 -6.698,0.121 -10.989,0.283 -2.993,-0.063 -5.982,0.246 -9.054,0.24 -22.787,-0.047 -35.325,16.457 -44.592,38.93 -0.099,-0.065 -8.348,-5.502 -15.606,11.044 0,0 -4.009,14.046 7.371,12.393 -1.234,3.951 -2.443,7.965 -3.654,12.002 -11.349,37.82 24.889,53.536 52.127,65.784 8.92,4.013 28.78,3.237 37.104,-0.451 23.063,-7.188 35.346,-16.074 40.057,-37.01 2.416,1.436 9.38,3.609 16.215,-12.779 0,0 8.601,-20.276 -13.924,-14.794 z"
           id="path7845" />
        <radialGradient
           id="radialGradient54514"
           cx="5877.0913"
           cy="7155.2402"
           r="121.8525"
           gradientTransform="matrix(0.9976,-0.0686,0.0686,0.9976,-527.4785,586.272)"
           gradientUnits="userSpaceOnUse">
          <stop
             offset="0"
             style="stop-color:#E9D1A7"
             id="stop54502" />
          <stop
             offset="0.2929"
             style="stop-color:#E9CEA4"
             id="stop54504" />
          <stop
             offset="0.5248"
             style="stop-color:#EAC69A"
             id="stop54506" />
          <stop
             offset="0.7356"
             style="stop-color:#ECB889"
             id="stop54508" />
          <stop
             offset="0.9329"
             style="stop-color:#EFA572"
             id="stop54510" />
          <stop
             offset="1"
             style="stop-color:#F09D68"
             id="stop54512" />
        </radialGradient>
        <path
           style="fill:url(#SVGID_523_-7-1-1)"
           inkscape:connector-curvature="0"
           d="m 5881.133,7359.443 c -26.276,41.863 -61.903,4.284 -61.903,4.284 -4.919,9.791 -16.688,7.521 -16.688,7.521 -21.087,-3.293 -16.909,-27.685 -16.909,-27.685 -0.374,-1.11 0.401,-5.556 0.663,-11.007 -12.563,37.515 18.91,53.319 49.742,67.747 5.072,2.372 13.595,3.641 21.69,3.544 46.123,-3.538 49.897,-41.724 49.897,-41.724 -8.756,24.305 -26.492,-2.68 -26.492,-2.68 z"
           id="path7860" />
        <g
           id="g7868">
          <path
             style="opacity:0.8;fill:#e3ae75"
             inkscape:connector-curvature="0"
             d="m 5837.906,7340.833 c 0,0 1.45,-2.989 10.503,3.434 0,0 0.751,1.402 3.51,0.795 0,0 4.854,3.471 -7.884,2.67 0,0 -6.451,-1.805 -6.129,-6.899 z"
             id="path7862" />
          <path
             style="fill:#b57c5e"
             inkscape:connector-curvature="0"
             d="m 5845.243,7328.583 c 0,0 -2.293,8.604 -8.604,11.5 0,0 1.829,13.742 16.237,6.657 0,0 -12.835,5.158 -14.971,-5.908 0,10e-4 9.079,-6.365 7.338,-12.249 z"
             id="path7864" />
          <path
             style="opacity:0.6;fill:#fff4ef"
             inkscape:connector-curvature="0"
             d="m 5846.708,7341.316 c 0,0 1.101,-2.285 5.789,0.126 0,0 0.666,4.825 -5.789,-0.126 z"
             id="path7866" />
        </g>
        <path
           style="opacity:0.5;fill:#ffffff"
           inkscape:connector-curvature="0"
           d="m 5886.979,7348.306 c 0,0 3.39,-3.302 7.284,-0.189 3.899,3.108 -10.487,1.385 -7.284,0.189 z"
           id="path7870" />
        <path
           style="opacity:0.64;fill:#ffffff"
           inkscape:connector-curvature="0"
           d="m 5800.425,7331.63 c 0,0 -9.623,-0.901 -11.618,6.066 -1.994,6.97 4.589,-1.314 11.618,-6.066 z"
           id="path7872" />
        <g
           id="g7878">
          <path
             style="fill:#edc69e"
             inkscape:connector-curvature="0"
             d="m 5791.422,7321.037 c 0,0 -8.727,-1.689 -5.866,-10.992 0,0 4.839,-8.575 11.009,-6.143 l -1.339,3.291 c 0,0 -4.85,-2.166 -7.34,4.624 0,0 -2.583,5.759 4.502,6.088 z"
             id="path7874" />
          <path
             style="fill:#e3ae75"
             inkscape:connector-curvature="0"
             d="m 5786.355,7310.55 c 0,0 2.848,-6.42 9.37,-6.717 -5.754,-1.374 -10.148,6.408 -10.148,6.408 -2.86,9.301 5.813,11.199 5.813,11.199 l -0.073,-0.632 c -2.106,-0.787 -7.145,-3.163 -4.962,-10.258 z"
             id="path7876" />
        </g>
        <path
           style="fill:#ffffff"
           inkscape:connector-curvature="0"
           d="m 5801.537,7295.606 c 0,0 -13.135,27.855 -16.572,48.475 9.472,-32.202 9.484,-32.229 16.572,-48.475 z"
           id="path7880" />
        <linearGradient
           id="linearGradient54531"
           gradientUnits="userSpaceOnUse"
           x1="5940.813"
           y1="7185.0347"
           x2="5970.1777"
           y2="7197.0815"
           gradientTransform="matrix(0.9976,-0.0686,0.0686,0.9976,-527.4785,586.272)">
          <stop
             offset="0"
             style="stop-color:#F0C49A"
             id="stop54527" />
          <stop
             offset="1"
             style="stop-color:#CA9C6A"
             id="stop54529" />
        </linearGradient>
        <path
           style="fill:url(#linearGradient2029)"
           inkscape:connector-curvature="0"
           d="m 5917.057,7335.915 c -0.01,-0.785 -0.017,-1.574 -0.033,-2.379 -0.337,-17.033 -3.626,-31.885 -9.504,-43.68 -12.507,-4.528 -11.22,-15.016 -27.281,-3.721 0,0 31.387,18.332 -3.63,42.098 l 8.186,16.381 c 0,0 37.191,-4.421 16.211,34.83 -9.523,17.815 -30.455,22.032 -36.685,23.589 4.124,-0.527 7.812,-1.388 10.392,-2.531 23.062,-7.19 35.346,-16.078 40.055,-37.014 2.418,1.438 9.382,3.613 16.216,-12.775 0,-10e-4 8.599,-20.279 -13.927,-14.798 z"
           id="path7887" />
        <path
           style="fill:#cc8e66"
           inkscape:connector-curvature="0"
           d="m 5896.127,7297.179 c 0,0 24.111,10.683 17.63,50.98 0,0 2.461,40.484 -35.661,50.718 0,0 28.727,-3.821 36.592,-34.459 0,0 13.281,-61.886 -18.561,-67.239 z"
           id="path7889" />
        <g
           id="g7968">
          <g
             id="g7921">
            <path
               style="fill:#120f11"
               inkscape:connector-curvature="0"
               d="m 5846.456,7318.097 c 0,0 -0.596,-24.006 -37.722,-20.354 0,0 -30.57,6.324 -5.998,31.953 0,0 18.273,18.659 37.746,2.812 0,0 7.098,-6.04 5.974,-14.411 z"
               id="path7891" />
            <linearGradient
               id="linearGradient54540"
               gradientUnits="userSpaceOnUse"
               x1="5892.3184"
               y1="6916.8687"
               x2="5921.2217"
               y2="6916.8687"
               gradientTransform="matrix(0.9938,-0.1116,0.1116,0.9938,-833.1748,1102.6343)">
              <stop
                 offset="0"
                 style="stop-color:#6E6C6C"
                 id="stop54536" />
              <stop
                 offset="1"
                 style="stop-color:#231F20"
                 id="stop54538" />
            </linearGradient>
            <path
               style="fill:url(#linearGradient2031)"
               inkscape:connector-curvature="0"
               d="m 5810.191,7323.906 c 0.725,-14.474 5.909,-22.195 11.076,-25.813 -3.68,-0.311 -6.335,-0.775 -14.028,0.932 0,0 -26.59,6.81 -4.776,29.317 0,0 4.712,5.349 10.703,7.556 -1.963,-4.444 -2.975,-11.992 -2.975,-11.992 z"
               id="path7898" />
            <path
               style="fill:#fff1e8"
               inkscape:connector-curvature="0"
               d="m 5844.78,7318.436 c 0,0 -2.162,-23.186 -34.243,-18.476 0,0 -27.749,5.741 -5.443,29.005 0,0 16.578,16.438 34.266,2.553 -10e-4,0 6.439,-5.483 5.42,-13.082 z"
               id="path7900" />
            <g
               id="g7919">
              <path
                 style="fill:#6b6b6b"
                 inkscape:connector-curvature="0"
                 d="m 5843.518,7317.401 c 0.979,8.715 -5.289,16.569 -14.001,17.547 -8.713,0.98 -19.01,-6.975 -19.988,-15.686 -0.977,-8.715 6.015,-15.282 14.725,-16.261 8.714,-0.979 18.285,5.69 19.264,14.4 z"
                 id="path7902" />
              <path
                 style="fill:#ffffff"
                 inkscape:connector-curvature="0"
                 d="m 5841.559,7317.864 c 0.87,7.735 -4.692,14.709 -12.428,15.578 -7.737,0.869 -16.877,-6.194 -17.745,-13.929 -0.868,-7.735 5.341,-13.566 13.072,-14.436 7.736,-0.867 16.231,5.052 17.101,12.787 z"
                 id="path7904" />
              <g
                 id="g7917">
                <g
                   id="g7913">
                  <linearGradient
                     id="linearGradient54550"
                     gradientUnits="userSpaceOnUse"
                     x1="5917.7178"
                     y1="6922.543"
                     x2="5929.6924"
                     y2="6922.543"
                     gradientTransform="matrix(0.9938,-0.1116,0.1116,0.9938,-833.1748,1102.6343)">
                    <stop
                       offset="0"
                       style="stop-color:#4D4D4F"
                       id="stop54546" />
                    <stop
                       offset="0.522"
                       style="stop-color:#171600"
                       id="stop54548" />
                  </linearGradient>
                  <path
                     style="fill:url(#linearGradient2033)"
                     inkscape:connector-curvature="0"
                     d="m 5832.309,7320.504 c 0.352,3.136 -2.028,5.979 -5.313,6.347 -3.285,0.371 -6.235,-1.874 -6.588,-5.011 -0.352,-3.134 2.026,-5.978 5.313,-6.347 3.283,-0.368 6.235,1.874 6.588,5.011 z"
                     id="path7911" />
                </g>
                <path
                   style="fill:#ffffff"
                   inkscape:connector-curvature="0"
                   d="m 5822.094,7317.21 c 0,0 0.779,1.779 3.063,3.604 0,0 -1.167,-4.283 -1.085,-4.887 0,0 -1.162,0.428 -1.978,1.283 z"
                   id="path7915" />
              </g>
            </g>
          </g>
          <g
             id="g7955">
            <path
               style="fill:#080808"
               inkscape:connector-curvature="0"
               d="m 5900.03,7328.717 c 0,0 -0.111,-24.828 -34.931,-18.848 0,0 -28.308,5.858 -5.55,29.59 0,0 16.106,15.949 34.948,2.601 10e-4,0 6.567,-5.59 5.533,-13.343 z"
               id="path7923" />
            <linearGradient
               id="linearGradient54563"
               gradientUnits="userSpaceOnUse"
               x1="5948.1865"
               y1="6933.8193"
               x2="5977.7568"
               y2="6933.8193"
               gradientTransform="matrix(0.9938,-0.1116,0.1116,0.9938,-833.1748,1102.6343)">
              <stop
                 offset="0"
                 style="stop-color:#6E6C6C"
                 id="stop54559" />
              <stop
                 offset="1"
                 style="stop-color:#231F20"
                 id="stop54561" />
            </linearGradient>
            <path
               style="fill:url(#linearGradient2035)"
               inkscape:connector-curvature="0"
               d="m 5868.343,7335.85 c 0.754,-15.076 5.709,-22.671 11.089,-26.438 -3.833,-0.325 -8.356,-0.132 -13.701,0.783 0,0 -28.312,5.828 -5.586,29.274 0,0 3.924,3.843 10.165,6.142 -2.045,-4.628 -1.967,-9.761 -1.967,-9.761 z"
               id="path7930" />
            <path
               style="fill:#fff1e8"
               inkscape:connector-curvature="0"
               d="m 5897.041,7328.857 c 0,0 0.197,-20.501 -29.729,-17.736 0,0 -26.534,6.181 -6.29,27.293 0,0 15.842,13.712 31.097,2.317 -10e-4,0 5.848,-4.977 4.922,-11.874 z"
               id="path7932" />
            <g
               id="g7951">
              <path
                 style="fill:#6b6b6b"
                 inkscape:connector-curvature="0"
                 d="m 5890.9,7327.267 c 0.938,8.358 -5.075,15.891 -13.431,16.828 -8.354,0.938 -18.227,-6.69 -19.167,-15.046 -0.939,-8.354 5.766,-14.654 14.119,-15.593 8.361,-0.936 17.542,5.455 18.479,13.811 z"
                 id="path7934" />
              <path
                 style="fill:#ffffff"
                 inkscape:connector-curvature="0"
                 d="m 5889.021,7327.709 c 0.835,7.419 -4.501,14.109 -11.924,14.939 -7.414,0.836 -16.18,-5.94 -17.015,-13.359 -0.834,-7.416 5.123,-13.007 12.539,-13.84 7.419,-0.834 15.569,4.843 16.4,12.26 z"
                 id="path7936" />
              <g
                 id="g7949">
                <g
                   id="g7945">
                  <linearGradient
                     id="linearGradient54573"
                     gradientUnits="userSpaceOnUse"
                     x1="5962.6558"
                     y1="6935.5527"
                     x2="5974.6289"
                     y2="6935.5527"
                     gradientTransform="matrix(0.9938,-0.1116,0.1116,0.9938,-833.1748,1102.6343)">
                    <stop
                       offset="0"
                       style="stop-color:#4D4D4F"
                       id="stop54569" />
                    <stop
                       offset="0.6044"
                       style="stop-color:#171600"
                       id="stop54571" />
                  </linearGradient>
                  <path
                     style="fill:url(#linearGradient2037)"
                     inkscape:connector-curvature="0"
                     d="m 5878.418,7328.416 c 0.354,3.139 -2.024,5.979 -5.31,6.35 -3.285,0.368 -6.235,-1.877 -6.589,-5.011 -0.352,-3.137 2.028,-5.979 5.313,-6.347 3.286,-0.371 6.235,1.874 6.586,5.008 z"
                     id="path7943" />
                </g>
                <path
                   style="fill:#ffffff"
                   inkscape:connector-curvature="0"
                   d="m 5868.208,7325.122 c 0,0 0.776,1.78 3.063,3.604 0,0 -1.169,-4.28 -1.087,-4.885 0,0 -1.162,0.427 -1.976,1.281 z"
                   id="path7947" />
              </g>
            </g>
            <path
               style="fill:#120f11"
               inkscape:connector-curvature="0"
               d="m 5899.37,7327.257 17.694,8.325 c 0,0 2.349,1.474 -0.188,2.304 l -18.455,-4.076 c 10e-4,0 2.214,-5.01 0.949,-6.553 z"
               id="path7953" />
          </g>
          <path
             style="fill:#120f11"
             inkscape:connector-curvature="0"
             d="m 5846.552,7319.875 c 0,0 2.649,-0.893 4.636,0.559 0,0 -0.566,2.593 -0.385,4.206 0,0 -0.952,-2.199 -4.951,-0.709 0,-10e-4 0.768,-3.096 0.7,-4.056 z"
             id="path7957" />
          <path
             style="fill:#ffffff"
             inkscape:connector-curvature="0"
             d="m 5850.876,7320.654 c 0,0 -3.994,-1.114 -4.746,2.764 l 0.386,-3.167 c 0,0 1.665,-1.08 4.36,0.403 z"
             id="path7959" />
          <linearGradient
             id="linearGradient54588"
             gradientUnits="userSpaceOnUse"
             x1="5996.4653"
             y1="6942.9453"
             x2="6010.6577"
             y2="6942.9453"
             gradientTransform="matrix(0.9938,-0.1116,0.1116,0.9938,-833.1748,1102.6343)">
            <stop
               offset="0"
               style="stop-color:#3A3A3A"
               id="stop54584" />
            <stop
               offset="1"
               style="stop-color:#231F20"
               id="stop54586" />
          </linearGradient>
          <path
             style="fill:url(#linearGradient2039)"
             inkscape:connector-curvature="0"
             d="m 5901.661,7329.082 c 0,0 2.236,3.737 -0.673,4.639 0,0 3.896,-2.422 14.522,2.139 z"
             id="path7966" />
        </g>
        <path
           style="fill:#edc3a4"
           inkscape:connector-curvature="0"
           d="m 5816.875,7290.808 4.922,1.529 c 0,0 5.089,-4.143 13.753,-4.718 l 7.177,-3.186 c 0,0 -5.39,8.293 -12.523,10.208 0,0 6.878,-0.449 9.057,1.287 0,0 24.933,-11.13 30.729,-5.434 0,0 1.875,2.566 -0.691,4.442 -2.565,1.874 -4.876,2.74 -4.876,2.74 0,0 2.095,0.209 5.198,1.349 0,0 4.845,-4.132 7.697,-2.782 0,0 7.004,-19.456 -6.229,-23.329 -13.228,-3.865 -37.099,0.699 -54.214,17.894 z"
           id="path7970" />
        <path
           style="fill:#a36451"
           inkscape:connector-curvature="0"
           d="m 5917.086,7340.746 c 0,0 12.905,-3.434 9.504,8.65 0,0 -4.512,14.591 -11.265,9.199 l 0.799,-3.46 c 0,0 5.685,1.147 7.069,-5.954 0,0 0.712,-6.028 -6.339,-5.237 z"
           id="path7972" />
        <linearGradient
           id="linearGradient54598"
           gradientUnits="userSpaceOnUse"
           x1="5857.856"
           y1="6881.6553"
           x2="6054.208"
           y2="6881.6553"
           gradientTransform="matrix(0.9938,-0.1116,0.1116,0.9938,-833.1748,1102.6343)">
          <stop
             offset="0"
             style="stop-color:#0085A8"
             id="stop54594" />
          <stop
             offset="1"
             style="stop-color:#006280"
             id="stop54596" />
        </linearGradient>
        <path
           style="fill:url(#linearGradient2041)"
           inkscape:connector-curvature="0"
           d="m 5953.848,7323.747 c -5.182,-18.648 -27.356,-21.059 -27.356,-21.059 21.557,-6.089 29.674,4.925 29.674,4.925 -4.202,-21.083 -29.743,-21.886 -29.743,-21.886 6.258,-9.645 18.215,-3.191 18.215,-3.191 -16.5,-28.47 -32.639,-25.224 -32.639,-25.224 7.506,-9.672 21.924,-13.01 21.924,-13.01 -19.656,-8.111 -50.185,10.452 -50.185,10.452 -0.965,-12.62 8.808,-15.951 8.808,-15.951 -14.372,-5.494 -26.666,1.905 -26.666,1.905 2.24,-7.239 -0.021,-20.576 -8.76,-26.044 -0.022,0 -0.885,0.931 -0.078,1.986 2.898,16.125 -2.91,29.217 -2.91,29.217 -8.633,-23.278 -21.101,-32.196 -21.101,-32.196 2.456,11.647 -0.035,33.883 -0.035,33.883 -20.629,-35.174 -51.286,-24.853 -51.286,-24.853 19.578,5.884 23.342,33.779 23.342,33.779 -27.493,-14.107 -51.681,4.83 -51.681,4.83 36.234,-2.007 46.786,15.384 46.786,15.384 -15.565,3.81 -21.437,18.14 -21.437,18.14 18.036,-4.774 20.463,0.627 20.463,0.627 17.512,-27.074 17.692,-4.653 17.692,-4.653 31.898,-11.493 13.328,3.834 13.328,3.834 60.012,-18.433 34.218,3.036 34.218,3.036 56.941,-12.07 52.534,36.139 52.534,36.139 1.497,-2.979 6.298,-4.569 6.298,-4.569 9.067,-2.737 14.792,3.842 14.792,3.842 0.02,-9.691 -7.535,-15.029 -7.535,-15.029 9.153,-6.305 23.338,5.686 23.338,5.686 z"
           id="path7979" />
        <path
           style="fill:#1b4353"
           inkscape:connector-curvature="0"
           d="m 5898.921,7283.667 c 0,0 25.352,-13.521 42.493,-3.483 0,0 -14.043,-5.416 -21.877,16.63 0,0 3.675,-18.082 -20.616,-13.147 z"
           id="path7981" />
        <path
           style="fill:#4498c2"
           inkscape:connector-curvature="0"
           d="m 5900.627,7263.054 c 0,0 12.461,-10.919 31.68,6.559 0,0 -9.614,-11.415 -31.68,-6.559 z"
           id="path7983" />
        <path
           style="fill:#164a61"
           inkscape:connector-curvature="0"
           d="m 5896.77,7260.514 c 0,0 5.078,-14.853 32.33,-15.93 0,0 -24.07,4.687 -32.33,15.93 z"
           id="path7985" />
        <path
           style="fill:#4498c2"
           inkscape:connector-curvature="0"
           d="m 5886.896,7269.893 c -2.535,-16.795 25.423,-24.615 25.423,-24.615 -29.468,6.088 -30.933,17.755 -30.933,17.755 -8.667,-2.993 -9.112,-10.48 -9.112,-10.48 -1.844,-12.885 12.829,-12.944 12.829,-12.944 -19.597,-0.204 -22.776,5.475 -23.278,7.006 2.839,-11.232 -3.379,-18.294 -3.379,-18.294 -0.573,30.214 -15.776,22.004 -15.776,22.004 3.465,-15.067 -8.569,-30.377 -8.569,-30.377 3.02,12.752 -2.484,34.394 -2.484,34.394 -14.884,-33.634 -45.967,-31.334 -45.967,-31.334 21.996,8.641 24.511,38.109 24.511,38.109 -33.033,-15.958 -49.807,-1.944 -49.807,-1.944 24.109,-7.864 56.093,15.515 56.093,15.515 -30.772,5.041 -33.505,16.064 -33.505,16.064 7.912,-10.806 39.688,-13.978 39.688,-13.978 -5.611,3.011 -3.991,10.365 -3.991,10.365 7.343,-12.328 30.29,-5.782 30.29,-5.782 -10.183,1.146 -11.002,7.98 -11.002,7.98 6.004,-3.054 18.125,-7.732 30.294,-5.781 19.816,3.177 8.825,0.36 17.625,-6.517 22.562,-15.419 39.161,-7.465 39.161,-7.465 -12.83,-9.359 -34.593,-1.623 -38.111,0.319 z"
           id="path7987" />
        <path
           style="fill:#a4dcf3"
           inkscape:connector-curvature="0"
           d="m 5778.72,7294.834 c 0,0 9.707,-16.61 31.602,-18.332 0,0 -20.289,-4.043 -31.602,18.332 z"
           id="path7989" />
        <path
           style="fill:#a4dcf3"
           inkscape:connector-curvature="0"
           d="m 5806.724,7264.08 c 0,0 16.327,-16.8 26.312,4.902 0,0 -8.234,-17.733 -26.312,-4.902 z"
           id="path7991" />
        <path
           style="fill:#a4dcf3"
           inkscape:connector-curvature="0"
           d="m 5872.677,7243.782 c 0,0 -25.121,7.003 -28.088,26.479 l 3.129,1.612 c 0,0 -1.901,-17.236 24.959,-28.091 z"
           id="path7993" />
        <path
           style="fill:#a4dcf3"
           inkscape:connector-curvature="0"
           d="m 5833.03,7213.671 c 0,0 6.791,20.683 -1.344,43.313 l -1.538,-3.875 c 0,0 6.825,-17.426 2.882,-39.438 z"
           id="path7995" />
        <linearGradient
           id="linearGradient54613"
           gradientUnits="userSpaceOnUse"
           x1="5910.5649"
           y1="6866.5938"
           x2="5937.1763"
           y2="6866.5938"
           gradientTransform="matrix(0.9938,-0.1116,0.1116,0.9938,-833.1748,1102.6343)">
          <stop
             offset="0"
             style="stop-color:#0085A8"
             id="stop54609" />
          <stop
             offset="1"
             style="stop-color:#006280"
             id="stop54611" />
        </linearGradient>
        <path
           style="fill:url(#linearGradient2043)"
           inkscape:connector-curvature="0"
           d="m 5806.724,7264.08 c 0,0 14.481,-14.123 27.502,6.432 l -4.701,0.529 c -10e-4,0 -4.789,-16.124 -22.801,-6.961 z"
           id="path8002" />
        <path
           style="fill:#2a6782"
           inkscape:connector-curvature="0"
           d="m 5804.091,7226.49 c 0,0 28.963,10.633 30.044,41.455 0,0 0.282,-18.677 -30.044,-41.455 z"
           id="path8004" />
        <linearGradient
           id="linearGradient54621"
           gradientUnits="userSpaceOnUse"
           x1="5958.2646"
           y1="6864.8013"
           x2="5978.3682"
           y2="6864.8013"
           gradientTransform="matrix(0.9938,-0.1116,0.1116,0.9938,-833.1748,1102.6343)">
          <stop
             offset="0"
             style="stop-color:#0085A8"
             id="stop54617" />
          <stop
             offset="1"
             style="stop-color:#006280"
             id="stop54619" />
        </linearGradient>
        <path
           style="fill:url(#linearGradient2045)"
           inkscape:connector-curvature="0"
           d="m 5872.677,7243.782 c 0,0 -17.668,5.157 -16.855,30.057 0,0 -1.021,-16.149 16.855,-30.057 z"
           id="path8011" />
        <path
           style="fill:#1b4353"
           inkscape:connector-curvature="0"
           d="m 5916.133,7323.398 c 0,0 20.991,-17.779 37.715,0.349 0,0 -10.139,-19.709 -32.637,-11.631 0,0 -5.017,-9.353 2.208,-12.148 0,0 14.838,-5.633 30.564,3.708 0,0 -12.557,-16.442 -33.969,-9.277 0,0 7.3,-12.72 -5.893,-13.618 -13.192,-0.899 -21.543,5.989 -22.627,10.475 0,0 12.83,-12.943 21.769,-0.461 0,0 -15.052,-1.953 -26.147,5.243 0,0 14.815,0.791 23.136,12.617 0,-10e-4 3.21,2.339 5.881,14.743 z"
           id="path8013" />
        <path
           style="fill:#8d5e24"
           inkscape:connector-curvature="0"
           d="m 5917.142,7340.343 -0.129,1.767 c 1.665,-0.379 10.964,-2.103 9.694,6.632 3.146,-11.776 -9.565,-8.399 -9.565,-8.399 z"
           id="path8015" />
        <path
           style="fill:#164a61"
           inkscape:connector-curvature="0"
           d="m 5766.95,7259.621 c 0,0 28.1,0.01 39.504,16.192 l -4.31,0.483 c 0,0 -7.495,-13.679 -35.194,-16.675 z"
           id="path8017" />
        <path
           style="fill:#164a61"
           inkscape:connector-curvature="0"
           d="m 5888.823,7239.19 c 0,0 -19.849,3.42 -9.558,17.337 10e-4,0 -2.752,-10.4 9.558,-17.337 z"
           id="path8019" />
        <path
           style="fill:#164a61"
           inkscape:connector-curvature="0"
           d="m 5845.756,7230.143 c 0,0 8.284,10.177 0.285,20.198 0,0 15.022,3.075 -0.285,-20.198 z"
           id="path8021" />
        <path
           style="fill:#164a61"
           inkscape:connector-curvature="0"
           d="m 5851.273,7273.954 c 0,0 -17.736,-13.083 -28.646,2.819 10e-4,0 5.193,-10.302 28.646,-2.819 z"
           id="path8023" />
        <linearGradient
           id="linearGradient54634"
           gradientUnits="userSpaceOnUse"
           x1="5967.877"
           y1="6879.3281"
           x2="5977.7612"
           y2="6879.3281"
           gradientTransform="matrix(0.9938,-0.1116,0.1116,0.9938,-833.1748,1102.6343)">
          <stop
             offset="0"
             style="stop-color:#0085A8"
             id="stop54630" />
          <stop
             offset="1"
             style="stop-color:#006280"
             id="stop54632" />
        </linearGradient>
        <path
           style="fill:url(#linearGradient2047)"
           inkscape:connector-curvature="0"
           d="m 5865.545,7273.305 c 0,0 5.921,-4.101 6.202,7.155 0,0 8.327,-17.622 -2.228,-15.455 0,0 -5.27,5.5 -3.974,8.3 z"
           id="path8030" />
        <path
           style="fill:#a4dcf3"
           inkscape:connector-curvature="0"
           d="m 5756.506,7259.913 c 0,0 13.121,-13.758 43.104,-5.621 -10e-4,0 -20.217,-6.835 -43.104,5.621 z"
           id="path8032" />
        <path
           style="fill:#164a61"
           inkscape:connector-curvature="0"
           d="m 5779.095,7294.548 c 0,0 15.201,-12.139 26.047,-7.343 l -5.959,8.256 c 0,0 -6.46,-4.529 -20.463,-0.627"
           id="path8034" />
        <g
           id="g8042">
          <path
             style="fill:#5c3a09"
             inkscape:connector-curvature="0"
             d="m 5819.229,7363.727 c 0,0 30.442,21.104 61.204,-4.851 l 0.055,0.695 c 0,0 -27.175,30.391 -61.44,4.546 z"
             id="path8036" />
          <path
             style="fill:#885241"
             inkscape:connector-curvature="0"
             d="m 5879.562,7352.297 c 0,0 0.967,8.106 6.543,9.871 -10e-4,0 -8.476,1.75 -6.543,-9.871 z"
             id="path8038" />
          <path
             style="fill:#cc7d65"
             inkscape:connector-curvature="0"
             d="m 5819.253,7358.908 c 0,0 1.607,10.568 -4.881,9.523 0,0 4.172,-3.545 4.881,-9.523 z"
             id="path8040" />
        </g>
        <path
           style="fill:#cb896a"
           inkscape:connector-curvature="0"
           d="m 5845.942,7379.216 c 0,0 23.848,3.777 20.523,-4.067 0,0 -3.94,5.235 -20.523,4.067 z"
           id="path8044" />
      </g>
      <g
         transform="matrix(2.6838802,0,0,2.6838802,-144.38256,34.133293)"
         id="g1031">
        <path
           inkscape:connector-curvature="0"
           d="m -71.582906,59.300446 q 0,1.323701 -0.779374,2.239157 -0.853601,1.014425 -2.288646,1.014425 -1.435039,0 -2.239156,-0.977311 -0.72989,-0.890715 -0.72989,-2.276271 V 53.94379 h 1.138135 v 5.480367 q 0,0.952569 0.482471,1.521637 0.482472,0.569067 1.34844,0.569067 0.915459,0 1.447414,-0.668036 0.457729,-0.581438 0.457729,-1.336071 0,-1.002053 -0.581439,-1.546379 -0.49484,-0.470099 -1.22473,-0.470099 -0.445361,0 -0.853606,0.160823 -0.457724,0.222679 -0.692775,0.309276 v -1.039167 q 0.358761,-0.210307 0.72989,-0.334018 0.383504,-0.12371 0.767007,-0.12371 1.187614,0 2.065957,0.754633 0.952573,0.816488 0.952573,2.078333 z"
           style="font-style:normal;font-variant:normal;font-weight:normal;font-stretch:normal;font-size:45.5177px;line-height:40.966px;font-family:Bahase;-inkscape-font-specification:Bahase;letter-spacing:0px;word-spacing:0px;fill:#696a6c;fill-opacity:1;stroke:none;stroke-width:0.267068;stroke-linecap:butt;stroke-linejoin:miter;stroke-miterlimit:4;stroke-dasharray:none;stroke-opacity:1"
           id="path1091" />
        <path
           inkscape:connector-curvature="0"
           d="m -64.819819,59.424157 q 0,1.125764 -0.71752,2.016478 -0.828859,1.026796 -2.152559,1.026796 -1.583489,0 -2.412353,-0.927828 -0.754633,-0.84123 -0.754633,-2.239157 0,-1.311329 0.90309,-2.152559 0.8536,-0.791746 2.065957,-0.791746 1.237106,0 2.065965,0.692778 1.002053,0.828859 1.002053,2.375238 z m -1.162877,-0.123711 q 0,-0.865972 -0.494841,-1.385555 -0.494841,-0.519584 -1.4103,-0.519584 -0.927827,0 -1.422666,0.630923 -0.408245,0.519584 -0.408245,1.274216 0,0.816489 0.371129,1.385556 0.482471,0.729891 1.459782,0.729891 0.878346,0 1.348445,-0.432986 0.556696,-0.519583 0.556696,-1.682461 z"
           style="font-style:normal;font-variant:normal;font-weight:normal;font-stretch:normal;font-size:45.5177px;line-height:40.966px;font-family:Bahase;-inkscape-font-specification:Bahase;letter-spacing:0px;word-spacing:0px;fill:#696a6c;fill-opacity:1;stroke:none;stroke-width:0.267068;stroke-linecap:butt;stroke-linejoin:miter;stroke-miterlimit:4;stroke-dasharray:none;stroke-opacity:1"
           id="path1093" />
        <path
           inkscape:connector-curvature="0"
           d="m -58.003767,59.300446 q 0,1.323701 -0.779375,2.239157 -0.853601,1.014425 -2.288641,1.014425 -1.43504,0 -2.239157,-0.977311 -0.729891,-0.890715 -0.729891,-2.276271 V 53.94379 h 1.138135 v 5.480367 q 0,0.952569 0.482471,1.521637 0.48247,0.569067 1.348442,0.569067 0.915456,0 1.447411,-0.668036 0.457728,-0.581438 0.457728,-1.336071 0,-1.002053 -0.581439,-1.546379 -0.494841,-0.470099 -1.224732,-0.470099 -0.445357,0 -0.853601,0.160823 -0.457728,0.222679 -0.692778,0.309276 v -1.039167 q 0.35876,-0.210307 0.729891,-0.334018 0.383502,-0.12371 0.767004,-0.12371 1.187619,0 2.065963,0.754633 0.952569,0.816488 0.952569,2.078333 z"
           style="font-style:normal;font-variant:normal;font-weight:normal;font-stretch:normal;font-size:45.5177px;line-height:40.966px;font-family:Bahase;-inkscape-font-specification:Bahase;letter-spacing:0px;word-spacing:0px;fill:#696a6c;fill-opacity:1;stroke:none;stroke-width:0.267068;stroke-linecap:butt;stroke-linejoin:miter;stroke-miterlimit:4;stroke-dasharray:none;stroke-opacity:1"
           id="path1095" />
        <path
           inkscape:connector-curvature="0"
           d="m -53.30664,62.368462 h -1.237104 q -1.435039,0 -2.189672,-1.026795 -0.59381,-0.804117 -0.59381,-1.830913 0,-0.977312 0.680407,-1.830913 0.828859,-1.039166 2.202044,-1.039166 h 1.138135 v 1.039166 h -0.853601 q -0.692778,0 -1.224733,0.371131 -0.705148,0.494842 -0.705148,1.459782 0,0.680407 0.432986,1.187619 0.531954,0.618552 1.496895,0.618552 h 0.853601 z"
           style="font-style:normal;font-variant:normal;font-weight:normal;font-stretch:normal;font-size:45.5177px;line-height:40.966px;font-family:Bahase;-inkscape-font-specification:Bahase;letter-spacing:0px;word-spacing:0px;fill:#696a6c;fill-opacity:1;stroke:none;stroke-width:0.267068;stroke-linecap:butt;stroke-linejoin:miter;stroke-miterlimit:4;stroke-dasharray:none;stroke-opacity:1"
           id="path1097" />
        <path
           inkscape:connector-curvature="0"
           d="m -46.432406,62.368462 h -1.162877 v -3.352549 q 0,-0.655665 -0.408243,-1.051538 -0.494841,-0.470099 -1.496896,-0.470099 -0.643293,0 -1.175247,0.383502 -0.742262,0.531954 -0.742262,1.546379 0,0.977311 0.643294,1.521637 0.556695,0.470099 1.373183,0.470099 0.395874,0 0.705151,-0.173195 0.321647,-0.185565 0.717518,-0.581438 v 1.323701 q -0.309275,0.235049 -0.655665,0.358759 -0.346387,0.123711 -0.952568,0.123711 -1.162877,0 -1.991737,-0.804118 -0.890714,-0.865972 -0.890714,-2.239156 0,-1.286587 0.779375,-2.103075 0.841231,-0.878343 2.28864,-0.878343 1.360816,0 2.202044,0.767003 0.767004,0.705149 0.767004,1.707202 z"
           style="font-style:normal;font-variant:normal;font-weight:normal;font-stretch:normal;font-size:45.5177px;line-height:40.966px;font-family:Bahase;-inkscape-font-specification:Bahase;letter-spacing:0px;word-spacing:0px;fill:#696a6c;fill-opacity:1;stroke:none;stroke-width:0.267068;stroke-linecap:butt;stroke-linejoin:miter;stroke-miterlimit:4;stroke-dasharray:none;stroke-opacity:1"
           id="path1099" />
        <path
           inkscape:connector-curvature="0"
           d="m -42.539395,57.395307 h -0.284534 q -0.779376,0.09897 -1.162878,0.655665 -0.383502,0.556697 -0.383502,1.657719 v 2.659771 h -1.051538 v -5.826756 h 1.051538 v 0.569068 q 0.185567,-0.284534 0.494841,-0.48247 0.420615,-0.272163 0.927828,-0.272163 h 0.408245 z"
           style="font-style:normal;font-variant:normal;font-weight:normal;font-stretch:normal;font-size:45.5177px;line-height:40.966px;font-family:Bahase;-inkscape-font-specification:Bahase;letter-spacing:0px;word-spacing:0px;fill:#696a6c;fill-opacity:1;stroke:none;stroke-width:0.267068;stroke-linecap:butt;stroke-linejoin:miter;stroke-miterlimit:4;stroke-dasharray:none;stroke-opacity:1"
           id="path1101" />
        <path
           inkscape:connector-curvature="0"
           d="m -36.105106,59.795288 q 0,0.952569 -0.668034,1.756686 -0.828859,1.002054 -2.313384,1.002054 -1.298957,0 -2.189672,-0.828859 -0.878343,-0.84123 -0.878343,-2.115447 0,-1.521636 1.026795,-2.412351 0.878343,-0.754632 2.04122,-0.754632 0.9402,0 1.719573,0.556696 0.680407,0.48247 1.162877,1.348442 l -4.045327,2.214415 -0.470098,-0.853601 2.870078,-1.645348 q -0.37113,-0.37113 -0.507213,-0.432986 -0.296903,-0.136081 -0.72989,-0.136081 -0.903086,0 -1.43504,0.655665 -0.482469,0.593809 -0.482469,1.459781 0,0.767004 0.482469,1.31133 0.531954,0.593809 1.43504,0.593809 0.927828,0 1.348442,-0.470099 0.309278,-0.346389 0.556697,-1.336071 z"
           style="font-style:normal;font-variant:normal;font-weight:normal;font-stretch:normal;font-size:45.5177px;line-height:40.966px;font-family:Bahase;-inkscape-font-specification:Bahase;letter-spacing:0px;word-spacing:0px;fill:#696a6c;fill-opacity:1;stroke:none;stroke-width:0.267068;stroke-linecap:butt;stroke-linejoin:miter;stroke-miterlimit:4;stroke-dasharray:none;stroke-opacity:1"
           id="path1103" />
        <path
           inkscape:connector-curvature="0"
           d="m -30.649868,60.846825 q 0,0.915457 -0.680408,1.286588 -0.470098,0.259792 -1.274214,0.259792 l -0.445358,-0.02474 h -2.387608 v -1.051538 h 2.474204 l 0.383503,0.02474 q 0.371132,0 0.531956,-0.07423 0.247419,-0.11134 0.247419,-0.420615 0,-0.445358 -0.841231,-0.742262 -0.259791,-0.0866 -1.088651,-0.309276 -0.828859,-0.222679 -1.237102,-0.60618 -0.470098,-0.432986 -0.470098,-1.125764 0,-0.915457 0.680405,-1.261845 0.507213,-0.259792 1.608236,-0.259792 h 2.214413 v 0.952569 h -2.313381 q -0.494842,0 -0.767004,0.09897 -0.272163,0.09897 -0.272163,0.371131 0,0.48247 0.915456,0.742263 0.408242,0.111338 0.816488,0.210307 1.08865,0.383501 1.496893,0.791746 0.408245,0.408244 0.408245,1.138134 z"
           style="font-style:normal;font-variant:normal;font-weight:normal;font-stretch:normal;font-size:45.5177px;line-height:40.966px;font-family:Bahase;-inkscape-font-specification:Bahase;letter-spacing:0px;word-spacing:0px;fill:#696a6c;fill-opacity:1;stroke:none;stroke-width:0.267068;stroke-linecap:butt;stroke-linejoin:miter;stroke-miterlimit:4;stroke-dasharray:none;stroke-opacity:1"
           id="path1105" />
      </g>
    </g>
  </g>
</svg>
